<?xml version="1.0" encoding="UTF-8"?>
<svg xmlns="http://www.w3.org/2000/svg" viewBox="0 0 848 504" width="848" height="504">
<defs>
<linearGradient id="tier0" x1="0" y1="0" x2="1" y2="1"><stop offset="0" stop-color="#10233c"/><stop offset="1" stop-color="#16304e"/></linearGradient>
<linearGradient id="tier1" x1="0" y1="0" x2="1" y2="1"><stop offset="0" stop-color="#0e2c32"/><stop offset="1" stop-color="#123c42"/></linearGradient>
<linearGradient id="tier2" x1="0" y1="0" x2="1" y2="1"><stop offset="0" stop-color="#241c3e"/><stop offset="1" stop-color="#322652"/></linearGradient>
<linearGradient id="tier3" x1="0" y1="0" x2="1" y2="1"><stop offset="0" stop-color="#2c160c"/><stop offset="1" stop-color="#3d2214"/></linearGradient>
<linearGradient id="tip" x1="0" y1="0" x2="0" y2="1"><stop offset="0" stop-color="#083038"/><stop offset="1" stop-color="#061820"/></linearGradient>
</defs>
<rect width="848" height="504" fill="#0c1117"/>
<text x="424.0" y="36.0" font-family="Arial, Helvetica, sans-serif" font-size="20" font-weight="700" fill="#ffffff" text-anchor="middle">Hardware Tier Quick-Pick Guide</text>
<rect x="36" y="58" width="776" height="68" rx="16" fill="url(#tier0)" stroke="#5aa6f0" stroke-width="1.7"/>
<g transform="translate(52.0 74.0)" fill="none" stroke="#5aa6f0" stroke-width="1.6" stroke-linejoin="round"><rect x="4" y="4" width="24" height="16" rx="2"/><path d="M1 22 H31 L28 20 H4 Z" fill="#5aa6f0" stroke="none" opacity="0.9"/></g>
<text x="108.0" y="86.0" font-family="Arial, Helvetica, sans-serif" font-size="16" font-weight="700" fill="#5aa6f0" text-anchor="start">8 GB RAM</text>
<text x="108.0" y="108.0" font-family="Arial, Helvetica, sans-serif" font-size="14" font-weight="400" fill="#e8eef2" text-anchor="start">Qwen3 8B (~5.5 GB VRAM) or Phi-4-mini (~2.5–2.8 GB VRAM)</text>
<rect x="36" y="134" width="776" height="68" rx="16" fill="url(#tier1)" stroke="#63e0ea" stroke-width="1.7"/>
<g transform="translate(52.0 150.0)" fill="none" stroke="#63e0ea" stroke-width="1.6" stroke-linejoin="round"><path d="M2 10 H22 L26 14 V22 H6 L2 18 Z"/><circle cx="12" cy="16" r="3.2"/><path d="M22 14 H26 M6 22 V26 M12 22 V26 M18 22 V26"/></g>
<text x="108.0" y="162.0" font-family="Arial, Helvetica, sans-serif" font-size="16" font-weight="700" fill="#63e0ea" text-anchor="start">12–16 GB VRAM</text>
<text x="108.0" y="184.0" font-family="Arial, Helvetica, sans-serif" font-size="14" font-weight="400" fill="#e8eef2" text-anchor="start">Qwen3 14B (~8–9 GB) or DeepSeek-R1-Distill-14B (~9–10 GB)</text>
<rect x="36" y="210" width="776" height="68" rx="16" fill="url(#tier2)" stroke="#b79af0" stroke-width="1.7"/>
<g transform="translate(52.0 226.0)" fill="none" stroke="#b79af0" stroke-width="1.6" stroke-linejoin="round"><path d="M2 10 H22 L26 14 V22 H6 L2 18 Z"/><circle cx="12" cy="16" r="3.2"/><path d="M22 14 H26 M6 22 V26 M12 22 V26 M18 22 V26"/></g>
<text x="108.0" y="238.0" font-family="Arial, Helvetica, sans-serif" font-size="16" font-weight="700" fill="#b79af0" text-anchor="start">24 GB VRAM</text>
<text x="108.0" y="260.0" font-family="Arial, Helvetica, sans-serif" font-size="14" font-weight="400" fill="#e8eef2" text-anchor="start">Qwen3 32B (~18–20 GB) or DeepSeek-R1-Distill-32B (72.6% on AIME)</text>
<rect x="36" y="286" width="776" height="68" rx="16" fill="url(#tier3)" stroke="#f09448" stroke-width="1.7"/>
<g transform="translate(52.0 302.0)" fill="none" stroke="#f09448" stroke-width="1.6" stroke-linejoin="round"><rect x="8" y="3" width="16" height="22" rx="2"/><rect x="11" y="7" width="10" height="7"/><path d="M12 18 H20 M14 21 H18"/></g>
<text x="108.0" y="314.0" font-family="Arial, Helvetica, sans-serif" font-size="16" font-weight="700" fill="#f09448" text-anchor="start">48 GB+ VRAM</text>
<text x="108.0" y="336.0" font-family="Arial, Helvetica, sans-serif" font-size="14" font-weight="400" fill="#e8eef2" text-anchor="start">Llama 3.3 70B (~40 GB at Q4) for general use | DeepSeek-R1 Distill 70B for reasoning</text>
<rect x="22" y="372" width="804" height="112" rx="18" fill="url(#tip)" stroke="#3ad4e4" stroke-width="2"/>
<g transform="translate(40.0 388.0) scale(1 1)" fill="none" stroke="#3ad4e4" stroke-width="1.3" opacity="0.85"><path d="M0 0 H46"/><path d="M0 0 V28"/><path d="M16 0 V12 H34"/><path d="M0 14 H12"/><circle cx="46" cy="0" r="2.2" fill="#3ad4e4" stroke="none"/><circle cx="34" cy="12" r="2" fill="#7ef6ff" stroke="none"/><circle cx="0" cy="28" r="2" fill="#3ad4e4" stroke="none"/></g>
<g transform="translate(808.0 388.0) scale(-1 1)" fill="none" stroke="#3ad4e4" stroke-width="1.3" opacity="0.85"><path d="M0 0 H46"/><path d="M0 0 V28"/><path d="M16 0 V12 H34"/><path d="M0 14 H12"/><circle cx="46" cy="0" r="2.2" fill="#3ad4e4" stroke="none"/><circle cx="34" cy="12" r="2" fill="#7ef6ff" stroke="none"/><circle cx="0" cy="28" r="2" fill="#3ad4e4" stroke="none"/></g>
<g transform="translate(40.0 468.0) scale(1 -1)" fill="none" stroke="#3ad4e4" stroke-width="1.3" opacity="0.85"><path d="M0 0 H46"/><path d="M0 0 V28"/><path d="M16 0 V12 H34"/><path d="M0 14 H12"/><circle cx="46" cy="0" r="2.2" fill="#3ad4e4" stroke="none"/><circle cx="34" cy="12" r="2" fill="#7ef6ff" stroke="none"/><circle cx="0" cy="28" r="2" fill="#3ad4e4" stroke="none"/></g>
<g transform="translate(808.0 468.0) scale(-1 -1)" fill="none" stroke="#3ad4e4" stroke-width="1.3" opacity="0.85"><path d="M0 0 H46"/><path d="M0 0 V28"/><path d="M16 0 V12 H34"/><path d="M0 14 H12"/><circle cx="46" cy="0" r="2.2" fill="#3ad4e4" stroke="none"/><circle cx="34" cy="12" r="2" fill="#7ef6ff" stroke="none"/><circle cx="0" cy="28" r="2" fill="#3ad4e4" stroke="none"/></g>
<g transform="translate(48 404)"><circle cx="16" cy="14" r="10" fill="#f6e27a" stroke="#e0b030" stroke-width="1.2"/><path d="M16 2 V6 M6 6 L8.5 8.5 M26 6 L23.5 8.5 M4 16 H8 M24 16 H28" stroke="#f6e27a" stroke-width="1.4" stroke-linecap="round"/><rect x="11" y="22" width="10" height="4" rx="1" fill="#d7c36a"/></g>
<text x="96.0" y="424.0" font-family="Arial, Helvetica, sans-serif" font-size="16" font-weight="700" fill="#4ae3f5" text-anchor="start">Pro Tip:</text>
<text x="168.0" y="424.0" font-family="Arial, Helvetica, sans-serif" font-size="16" font-weight="600" fill="#ffffff" text-anchor="start">Within the same memory budget, a larger</text>
<text x="96.0" y="452.0" font-family="Arial, Helvetica, sans-serif" font-size="16" font-weight="600" fill="#ffffff" text-anchor="start">Q4 model usually beats a smaller Q8 model.</text>
</svg>